<?xml version="1.0" standalone="no"?>
<!DOCTYPE svg PUBLIC "-//W3C//DTD SVG 20010904//EN"
 "http://www.w3.org/TR/2001/REC-SVG-20010904/DTD/svg10.dtd">
<svg version="1.0" xmlns="http://www.w3.org/2000/svg"
 width="500.000000pt" height="500.000000pt" viewBox="0 0 500.000000 500.000000"
 preserveAspectRatio="xMidYMid meet">

<g transform="translate(0.000000,500.000000) scale(0.100000,-0.100000)"
fill="#000000" stroke="none">
<path d="M2696 3954 c-61 -19 -110 -50 -162 -103 l-41 -42 -139 55 c-182 73
-197 73 -275 -1 -32 -31 -59 -59 -59 -63 0 -4 26 -21 58 -38 51 -28 54 -32 34
-38 -43 -12 -162 -73 -222 -114 -162 -110 -294 -295 -350 -490 -31 -107 -38
-307 -16 -421 34 -166 123 -333 240 -452 l58 -59 24 23 24 22 -67 70 -67 69
39 14 c52 17 83 54 92 107 5 32 19 55 58 97 64 67 75 88 75 137 0 51 -28 101
-79 141 -57 43 -111 44 -167 2 -35 -26 -47 -29 -112 -30 l-73 0 3 68 3 67 88
5 c82 5 91 7 113 33 17 19 24 40 24 67 0 35 -8 48 -65 109 -36 37 -65 73 -65
78 0 21 101 151 162 209 35 34 92 80 127 103 60 38 193 96 236 102 20 2 115
-39 115 -51 0 -3 -47 -52 -105 -110 -104 -103 -105 -105 -105 -152 l0 -47 -67
29 -68 29 -72 -72 c-40 -39 -73 -74 -73 -77 0 -3 41 -21 91 -40 50 -19 94 -39
98 -45 4 -5 23 -48 41 -95 18 -47 35 -87 37 -89 2 -3 37 28 77 68 l74 73 -28
69 -29 69 47 0 c46 0 48 2 154 107 59 59 109 105 111 102 2 -2 39 -68 82 -146
43 -79 82 -143 85 -143 4 0 32 27 63 59 74 78 74 94 2 274 -69 171 -67 177 32
131 55 -26 55 -27 35 -43 -20 -16 -20 -16 -2 -38 22 -28 32 -29 55 -3 10 11
21 20 25 20 4 0 34 -25 68 -56 l62 -56 0 -169 0 -169 -75 0 c-81 0 -127 -16
-145 -49 -13 -26 -14 -875 0 -900 8 -16 1 -22 -49 -45 -32 -14 -61 -26 -65
-26 -3 0 -6 16 -6 35 0 28 -10 46 -51 91 -44 49 -50 60 -45 87 7 36 1 31 56
48 56 18 80 59 80 140 0 117 -30 149 -141 149 l-71 0 -103 -100 c-99 -96 -105
-100 -148 -100 -35 0 -50 -6 -71 -26 -24 -24 -26 -34 -26 -105 0 -73 2 -81 30
-112 24 -28 30 -44 30 -81 0 -25 -2 -46 -3 -46 -2 0 -29 9 -59 19 l-56 19 -11
-25 c-14 -31 -10 -36 52 -57 210 -70 460 -53 664 45 l82 39 266 0 c291 0 320
5 344 56 8 17 11 152 11 445 0 463 0 467 -61 488 -18 6 -63 11 -100 11 l-69 0
0 195 c0 212 -4 233 -56 274 -18 14 -41 21 -71 21 -50 0 -79 -12 -108 -46
l-20 -23 -39 34 -38 34 68 44 c74 48 216 127 228 127 3 0 -5 -22 -19 -50 l-25
-49 30 -16 30 -15 55 111 c31 61 55 112 53 114 -8 7 -209 105 -215 105 -8 0
-35 -51 -30 -56 1 -1 31 -16 66 -34 l64 -32 -110 -57 c-61 -32 -142 -79 -181
-105 l-71 -47 -64 32 -65 32 30 46 c34 54 58 129 58 183 l0 38 -42 -1 c-24 0
-65 -7 -92 -15z m59 -81 c-13 -57 -46 -110 -103 -166 l-59 -59 64 -160 c35
-88 61 -167 59 -176 -5 -16 -45 -47 -50 -40 -2 2 -38 67 -81 146 l-79 143
-126 -126 c-121 -121 -127 -125 -168 -125 l-42 0 0 42 c0 41 4 47 125 168
l126 126 -151 83 c-144 80 -150 84 -134 102 9 10 25 21 34 24 10 3 85 -21 169
-55 83 -33 156 -60 163 -60 6 0 40 27 74 60 61 59 129 99 168 100 15 0 17 -5
11 -27z m416 -352 c24 -19 24 -23 27 -215 l3 -196 -70 0 -71 0 0 189 c0 175 1
190 21 215 24 31 57 34 90 7z m-1127 -247 c64 -25 65 -26 91 -91 l26 -66 -24
-24 -24 -25 -23 59 c-28 72 -31 75 -103 103 l-58 23 22 23 c12 13 24 24 26 24
1 0 32 -12 67 -26z m-350 -134 c51 -54 53 -61 30 -84 -20 -21 -134 -23 -134
-3 0 22 41 137 50 137 4 0 28 -22 54 -50z m1724 -112 c19 -19 17 -821 -2 -837
-9 -8 -96 -11 -297 -9 l-284 3 -3 415 c-1 228 0 421 3 427 6 18 565 19 583 1z
m-1522 -232 c62 -61 59 -82 -17 -162 -51 -52 -64 -73 -74 -116 -12 -57 -35
-78 -87 -78 -23 0 -32 8 -54 53 -36 70 -72 178 -80 238 l-7 49 80 0 c72 0 84
3 124 30 24 16 50 30 58 30 7 0 33 -20 57 -44z m722 -228 c7 -7 12 -40 12 -79
0 -62 -2 -68 -22 -74 -84 -24 -108 -52 -108 -129 0 -41 5 -52 50 -101 54 -59
66 -106 33 -120 -10 -4 -84 -10 -164 -13 l-146 -4 -5 70 c-5 62 -9 76 -37 107
-25 29 -31 44 -31 83 0 59 12 72 69 72 43 0 48 3 145 100 98 97 102 100 147
100 25 0 50 -5 57 -12z"/>
<path d="M2930 2610 l0 -360 30 0 30 0 0 360 0 360 -30 0 -30 0 0 -360z"/>
<path d="M3100 2610 l0 -360 30 0 30 0 0 360 0 360 -30 0 -30 0 0 -360z"/>
<path d="M3260 2610 l0 -360 35 0 35 0 0 360 0 360 -35 0 -35 0 0 -360z"/>
<path d="M2396 3192 c-247 -311 -408 -675 -471 -1062 -22 -139 -21 -150 14
-150 28 0 29 1 40 83 19 133 60 300 102 425 80 233 232 505 379 680 60 71 61
74 44 93 -9 10 -22 19 -28 19 -6 0 -42 -40 -80 -88z"/>
<path d="M2455 2985 c-14 -13 -25 -32 -25 -43 0 -10 -16 -33 -35 -52 -66 -64
-79 -132 -32 -165 14 -9 45 -15 84 -15 58 0 66 3 102 35 28 25 48 35 72 35 60
0 79 29 79 120 0 51 -4 65 -25 85 -22 23 -32 25 -110 25 -78 0 -88 -2 -110
-25z m175 -95 l0 -50 -40 0 c-29 0 -48 -7 -73 -30 -27 -23 -44 -30 -76 -30
-22 0 -41 3 -41 7 0 3 23 30 50 59 28 29 50 62 50 73 0 19 6 21 65 21 l65 0 0
-50z"/>
<path d="M2900 2014 l0 -35 48 3 c48 3 52 8 43 61 0 4 -21 7 -46 7 -45 0 -45
0 -45 -36z"/>
<path d="M3294 2036 c-14 -36 0 -51 49 -54 l47 -3 0 35 c0 36 0 36 -45 36 -31
0 -47 -5 -51 -14z"/>
<path d="M1303 1680 l-23 -9 0 -255 c0 -242 1 -256 19 -266 31 -16 69 -12 91
10 18 18 20 33 20 157 l0 137 61 -82 c90 -121 110 -121 199 1 33 45 60 75 61
67 0 -8 2 -73 3 -144 2 -113 4 -130 21 -142 24 -18 66 -18 91 0 18 13 19 30
22 243 2 139 -1 240 -7 256 -12 31 -51 44 -89 31 -15 -5 -61 -55 -110 -119
-46 -60 -88 -110 -92 -110 -5 0 -45 49 -91 108 -93 123 -119 140 -176 117z"/>
<path d="M2397 1675 c-15 -14 -17 -45 -17 -260 0 -208 2 -246 16 -259 12 -12
37 -16 109 -16 173 0 249 34 312 139 62 103 52 224 -27 314 -64 72 -113 90
-256 95 -103 4 -123 2 -137 -13z m260 -141 c92 -69 92 -169 0 -238 -17 -13
-48 -21 -87 -24 l-60 -4 0 147 0 147 60 -4 c39 -3 70 -11 87 -24z"/>
<path d="M1938 1519 c-16 -11 -28 -28 -28 -36 0 -9 36 -77 81 -152 71 -120 80
-139 71 -161 -6 -14 -22 -53 -36 -87 -14 -33 -23 -68 -20 -76 8 -22 75 -47 95
-36 18 9 230 472 232 508 2 18 -7 29 -31 44 -55 32 -73 20 -117 -80 -21 -49
-41 -91 -45 -96 -3 -4 -28 30 -55 75 -26 46 -55 91 -63 101 -20 23 -51 21 -84
-4z"/>
<path d="M3369 1511 c-16 -16 -29 -34 -29 -40 0 -5 24 -38 54 -73 l54 -63 -54
-57 c-30 -31 -54 -61 -54 -66 0 -21 52 -72 73 -72 12 0 44 22 74 52 l52 52 55
-52 c30 -29 64 -52 76 -52 26 0 70 43 70 67 0 10 -23 42 -50 71 -28 29 -50 56
-50 59 0 3 23 30 50 59 28 29 50 61 50 70 0 23 -49 74 -70 74 -8 0 -40 -25
-70 -55 l-54 -54 -57 54 c-32 30 -65 55 -74 55 -9 0 -30 -13 -46 -29z"/>
<path d="M2922 1518 c-8 -8 -12 -50 -12 -123 0 -98 3 -117 23 -156 43 -82 126
-116 196 -82 38 19 40 19 55 1 20 -22 79 -24 100 -2 13 13 16 44 16 183 0 116
-4 171 -12 179 -7 7 -30 12 -53 12 -23 0 -46 -5 -53 -12 -8 -8 -12 -47 -12
-110 0 -85 -3 -101 -20 -118 -11 -11 -31 -20 -45 -20 -50 0 -65 30 -65 131 0
114 -7 129 -63 129 -24 0 -48 -5 -55 -12z"/>
</g>
</svg>
